<svg xmlns="http://www.w3.org/2000/svg" width="24" height="24" viewBox="0 0 50 50"><linearGradient id="a" x1="0%" y1="0%" x2="150%" y2="250%"><stop offset="0%" stop-color="#ff0"/><stop offset="100%" stop-color="red"/></linearGradient><path fill="url(#a)" stroke="#682" d="M32.144 12.404c-.494-1.543-3.213-1.898-6.092-2.279-1.578-.205-3.371-.443-3.912-.842-.543-.396-1.305-2.035-1.977-3.482C18.941 3.169 17.787.687 16.167.679h-.031c-1.604.027-2.773 2.479-4.016 5.082-.684 1.439-1.463 3.07-2.006 3.461-.55.395-2.343.615-3.926.807-2.878.35-5.6.678-6.108 2.213-.507 1.539 1.479 3.426 3.587 5.424 1.155 1.098 2.465 2.34 2.67 2.98s-.143 2.416-.447 3.979c-.559 2.844-1.086 5.537.219 6.498.312.225.705.338 1.168.328 1.33-.023 3.245-1.057 5.096-2.061 1.387-.76 2.959-1.613 3.662-1.623.676.002 2.254.881 3.646 1.654 1.893 1.053 3.852 2.141 5.184 2.119.416-.008.771-.115 1.061-.322 1.312-.945.814-3.637.285-6.492-.289-1.566-.615-3.344-.408-3.984.211-.637 1.535-1.867 2.701-2.955 2.124-1.977 4.13-3.84 3.64-5.383zm-7.059 4.92"/></svg>